<svg width="256" height="256" xmlns="http://www.w3.org/2000/svg">
 <!-- Created with Method Draw - http://github.com/duopixel/Method-Draw/ -->

 <g>
  <title>background</title>
  <rect fill="#fff" id="canvas_background" height="258" width="258" y="-1" x="-1"/>
  <g display="none" overflow="visible" y="0" x="0" height="100%" width="100%" id="canvasGrid">
   <rect fill="url(#gridpattern)" stroke-width="0" y="0" x="0" height="100%" width="100%"/>
  </g>
 </g>
 <g>
  <title>Layer 1</title>
  <g id="svg_25">
   <g transform="matrix(0.263617, 0, 0, 0.263617, -12.8799, -14.6304)" id="svg_7">
    <g id="svg_5">
     <g id="svg_8">
      <path id="svg_9" d="m560.09906,660.424438c-7.478027,7.479004 -7.478027,19.583984 0,27.042969c7.479004,7.478027 19.583984,7.478027 27.042969,0l131.943115,-131.961914c3.979004,-3.979004 5.680908,-9.276001 5.411865,-14.479004c0.269043,-5.220947 -1.433838,-10.499023 -5.411865,-14.477051l-131.943115,-131.942841c-7.458984,-7.478027 -19.583984,-7.478027 -27.042969,0c-7.478027,7.478027 -7.478027,19.583984 0,27.041992l100.271973,100.271942l-412.83197,0c-10.557007,0.000977 -19.125,8.56897 -19.125,19.125977c0,10.557007 8.567993,19.125 19.125,19.125l412.83197,0l-100.271973,100.25293zm203.81488,-387.127899l-382.499878,0c-42.246948,0 -76.5,34.25293 -76.5,76.5l0,76.5l38.25,0l0,-76.5c0,-21.114014 17.117065,-38.25 38.25,-38.25l382.499878,0c21.133057,0 38.25,17.135986 38.25,38.25l0,382.499969c0,21.114014 -17.116943,38.25 -38.25,38.25l-382.499878,0c-21.132935,0 -38.25,-17.116943 -38.25,-38.25l0,-76.5l-38.25,0l0,76.5c0,42.24707 34.253052,76.499939 76.5,76.499939l382.499878,0c42.24707,0 76.5,-34.252869 76.5,-76.499939l0,-382.499969c0,-42.24707 -34.25293,-76.5 -76.5,-76.5z"/>
     </g>
    </g>
   </g>
   <g transform="matrix(0.263617, 0, 0, 0.263617, -12.8799, -14.6304)" id="svg_10"/>
   <g transform="matrix(0.263617, 0, 0, 0.263617, -12.8799, -14.6304)" id="svg_11"/>
   <g transform="matrix(0.263617, 0, 0, 0.263617, -12.8799, -14.6304)" id="svg_12"/>
   <g transform="matrix(0.263617, 0, 0, 0.263617, -12.8799, -14.6304)" id="svg_13"/>
   <g transform="matrix(0.263617, 0, 0, 0.263617, -12.8799, -14.6304)" id="svg_14"/>
   <g transform="matrix(0.263617, 0, 0, 0.263617, -12.8799, -14.6304)" id="svg_15"/>
   <g transform="matrix(0.263617, 0, 0, 0.263617, -12.8799, -14.6304)" id="svg_16"/>
   <g transform="matrix(0.263617, 0, 0, 0.263617, -12.8799, -14.6304)" id="svg_17"/>
   <g transform="matrix(0.263617, 0, 0, 0.263617, -12.8799, -14.6304)" id="svg_18"/>
   <g transform="matrix(0.263617, 0, 0, 0.263617, -12.8799, -14.6304)" id="svg_19"/>
   <g transform="matrix(0.263617, 0, 0, 0.263617, -12.8799, -14.6304)" id="svg_20"/>
   <g transform="matrix(0.263617, 0, 0, 0.263617, -12.8799, -14.6304)" id="svg_21"/>
   <g transform="matrix(0.263617, 0, 0, 0.263617, -12.8799, -14.6304)" id="svg_22"/>
   <g transform="matrix(0.263617, 0, 0, 0.263617, -12.8799, -14.6304)" id="svg_23"/>
   <g transform="matrix(0.263617, 0, 0, 0.263617, -12.8799, -14.6304)" id="svg_24"/>
  </g>
 </g>
</svg>