<svg width="512" height="512" xmlns="http://www.w3.org/2000/svg">
 <g>
  <title>background</title>
  <rect x="-1" y="-1" width="514" height="514" id="canvas_background" fill="none"/>
 </g>

 <g>
  <title>Layer 1</title>
  <circle cx="245" cy="267" r="245" fill="#1997ea" id="svg_1"/>
  <g id="svg_2">
   <path d="m179.309006,298.584015l-163.411016,193.181c-1.00799,1.19101 -0.93499,2.955994 0.169,4.05899c0.583,0.584015 1.352011,0.878998 2.122,0.878998c0.687,0 1.375,-0.234985 1.93701,-0.708984l193.163994,-163.399017c-12.741989,-9.821014 -24.171997,-21.26001 -33.980988,-34.010986z" fill="#d3ffff" id="svg_3"/>
   <path d="m152.395004,249.940994l-106.685005,126.121994c-1.007999,1.19101 -0.934998,2.955994 0.169003,4.05899c0.583,0.583008 1.351997,0.878998 2.121998,0.878998c0.687,0 1.375,-0.234985 1.937,-0.708984l117.377003,-99.290009c-5.891006,-9.803986 -10.904007,-20.191986 -14.919998,-31.060989z" fill="#d3ffff" id="svg_4"/>
   <path d="m233.664001,346.263l-97.953995,115.799988c-1.008011,1.19101 -0.935013,2.956024 0.168991,4.059021c0.583008,0.582977 1.352005,0.878998 2.122009,0.878998c0.685989,0 1.375,-0.235016 1.935989,-0.709015l124.935013,-105.682007c-10.901016,-3.828979 -21.343002,-8.640991 -31.208008,-14.346985z" fill="#d3ffff" id="svg_5"/>
   <path d="m326,371c-11.102997,0 -21.977997,-0.984985 -32.548004,-2.868988l-77.741989,91.904999c-1.008011,1.190979 -0.935013,2.955994 0.168991,4.05899c0.583008,0.583008 1.352005,0.878998 2.122009,0.878998c0.685989,0 1.375,-0.234985 1.935989,-0.708984l110.318008,-93.318024c-1.414001,0.031006 -2.832001,0.053009 -4.255005,0.053009z" fill="#d3ffff" id="svg_6"/>
   <path d="m141,186c0,-2.705994 0.070999,-5.395996 0.186005,-8.074005l-91.450005,108.110016c-1.007999,1.190979 -0.935001,2.955994 0.168999,4.05899c0.583,0.583008 1.352001,0.878998 2.122002,0.878998c0.687,0 1.375,-0.234985 1.937,-0.708984l89.273014,-75.516022c-1.468018,-9.371994 -2.237015,-18.972 -2.237015,-28.748993z" fill="#d3ffff" id="svg_7"/>
  </g>
  <circle cx="326" cy="186" r="186" fill="#EEF6FF" id="svg_8"/>
  <g id="svg_9">
   <path d="m161.511993,272.881012l32.849991,5.203003c-15.502991,-27.149017 -24.361984,-58.582016 -24.361984,-92.084015c0,-3.188995 0.085007,-6.356995 0.242996,-9.507004l-3.769989,-11.945999l-26.28801,13.395004l0,0c-0.11499,2.671997 -0.184998,5.356995 -0.184998,8.057999c0,31.384995 7.785004,60.947998 21.511993,86.881012l0,0z" fill="#D9EAFC" id="svg_10"/>
   <path d="m269.575989,21.268l-11.605011,-8.431999c-23.322983,9.17 -44.337982,22.923998 -61.954987,40.141001l4.819992,30.43401c17.268021,-26.063011 40.925018,-47.521011 68.740005,-62.143011z" fill="#D9EAFC" id="svg_11"/>
   <path d="m259.479004,359.737l0,0c20.65799,7.914001 43.079987,12.263 66.520996,12.263c5.050995,0 10.052002,-0.208008 15,-0.602997c-30.752991,-2.455017 -59.391998,-12.399017 -84.106995,-27.992004l2.585999,16.332001z" fill="#D9EAFC" id="svg_12"/>
  </g>
  <path d="m485.669006,164.100998l26.126007,13.311996c-2.195007,-48.289001 -22.800018,-91.774994 -54.966003,-123.609993l-6.108002,38.568001l-87.191986,-57.374001l30.500977,-22.160002c-21.070984,-8.285 -44.019012,-12.837 -68.029999,-12.837s-46.959015,4.552 -68.028992,12.836l30.500977,22.159998l-86.30899,56.793003l-6.147995,-38.813c-32.766006,32.021 -53.744995,76.044003 -55.830994,124.964993l26.287994,-13.394989l36.253998,114.861984l-41.214996,-6.527985c20.947998,39.578979 55.757004,70.684998 97.968002,86.855988l-4.339996,-27.395996l141.567017,0l-4.350006,27.459015c42.242981,-16.139008 77.087982,-47.227997 98.069977,-86.805023l-41.187988,6.52301l36.431,-115.416zm-48.541016,117.33699l-25.233002,3.997009l-42.510986,-42.512009l20.832001,-64.117004l58.276978,-33.645996l27.263,13.891006l-38.627991,122.386993zm11.708008,-177.171982l-4.88501,30.844986l-56.065979,32.371002l-56.39801,-40.974983l0,-68.231003l22.556,-16.388l94.792999,62.377998zm-150.877991,-62.376995l22.556,16.388l0,68.228985l-56.174988,40.813019l-55.267014,-31.90802l-5.024002,-31.725983l93.910004,-61.796001zm-121.572006,117.607006l27.863998,-14.197021l57.417999,33.149017l20.748993,63.85498l-42.926987,42.927994l-24.650009,-3.902985l-38.453995,-121.831985zm77.014999,161.870987l-4.722,-29.80899l42.078995,-42.077988l69.664001,0l42.652008,42.652969l-4.630005,29.233002l-145.042999,0l0,0.001007z" fill="#1A2B63" id="svg_13"/>
  <g id="svg_14"/>
  <g id="svg_15"/>
  <g id="svg_16"/>
  <g id="svg_17"/>
  <g id="svg_18"/>
  <g id="svg_19"/>
  <g id="svg_20"/>
  <g id="svg_21"/>
  <g id="svg_22"/>
  <g id="svg_23"/>
  <g id="svg_24"/>
  <g id="svg_25"/>
  <g id="svg_26"/>
  <g id="svg_27"/>
  <g id="svg_28"/>
 </g>
</svg>